<svg width="24" height="24" viewBox="0 0 24 24" fill="none" xmlns="http://www.w3.org/2000/svg">
    <path d="M12.0003 0H11.9997C5.37243 0 0 5.37243 0 11.9997V12.0003C0 18.6276 5.37243 24 11.9997 24H12.0003C18.6276 24 24 18.6276 24 12.0003V11.9997C24 5.37243 18.6276 0 12.0003 0Z" fill="url(#paint0_linear_2_44)"/>
    <path d="M15.9588 19.7347H8.04124C5.95951 19.7347 4.26529 18.0412 4.26529 15.9588V8.04124C4.26529 5.95951 5.95883 4.26529 8.04124 4.26529H15.9588C18.0405 4.26529 19.7347 5.95883 19.7347 8.04124V15.9588C19.7347 18.0405 18.0412 19.7347 15.9588 19.7347ZM8.04124 5.30274C6.53154 5.30274 5.30274 6.53086 5.30274 8.04124V15.9588C5.30274 17.4685 6.53086 18.6973 8.04124 18.6973H15.9588C17.4685 18.6973 18.6973 17.4692 18.6973 15.9588V8.04124C18.6973 6.53154 17.4692 5.30274 15.9588 5.30274H8.04124Z" fill="white"/>
    <path d="M12.0004 16.2602C9.65141 16.2602 7.73985 14.3493 7.73985 11.9997C7.73985 9.65004 9.65072 7.73917 12.0004 7.73917C14.35 7.73917 16.2609 9.65004 16.2609 11.9997C16.2609 14.3493 14.35 16.2602 12.0004 16.2602ZM12.0004 8.7773C10.2234 8.7773 8.7773 10.2227 8.7773 12.0003C8.7773 13.778 10.2228 15.2234 12.0004 15.2234C13.778 15.2234 15.2234 13.778 15.2234 12.0003C15.2234 10.2227 13.778 8.7773 12.0004 8.7773Z" fill="white"/>
    <path d="M16.6142 8.52579C17.0656 8.52579 17.4316 8.15983 17.4316 7.7084C17.4316 7.25698 17.0656 6.89102 16.6142 6.89102C16.1628 6.89102 15.7968 7.25698 15.7968 7.7084C15.7968 8.15983 16.1628 8.52579 16.6142 8.52579Z" fill="white"/>
    <defs>
        <linearGradient id="paint0_linear_2_44" x1="0" y1="11.9997" x2="24" y2="11.9997" gradientUnits="userSpaceOnUse">
            <stop stop-color="#FCD65B"/>
            <stop offset="0.47" stop-color="#DC486A"/>
            <stop offset="0.96" stop-color="#672FC8"/>
        </linearGradient>
    </defs>
</svg>
