<svg width="24" height="24" viewBox="0 0 24 24" fill="none" xmlns="http://www.w3.org/2000/svg">
<rect width="24" height="24" rx="12" fill="black"/>
    <mask id="mask0_2_25" style="mask-type:alpha" maskUnits="userSpaceOnUse" x="6" y="6" width="18" height="18">
        <rect x="6" y="6" width="18" height="18" fill="#D9D9D9"/>
    </mask>
    <g mask="url(#mask0_2_25)">
        <path d="M7.2 17C6.87 17 6.5875 16.8776 6.3525 16.6328C6.1175 16.388 6 16.0938 6 15.75V8.25C6 7.90625 6.1175 7.61198 6.3525 7.36719C6.5875 7.1224 6.87 7 7.2 7H16.8C17.13 7 17.4125 7.1224 17.6475 7.36719C17.8825 7.61198 18 7.90625 18 8.25V15.75C18 16.0938 17.8825 16.388 17.6475 16.6328C17.4125 16.8776 17.13 17 16.8 17H7.2ZM12 12.625L16.8 9.5V8.25L12 11.375L7.2 8.25V9.5L12 12.625Z" fill="white"/>
    </g>
</svg>
