<svg width="24" height="24" viewBox="0 0 24 24" fill="none" xmlns="http://www.w3.org/2000/svg">
    <rect width="24" height="24" rx="12" fill="#57D163"/>
    <mask id="mask0_2_45" style="mask-type:alpha" maskUnits="userSpaceOnUse" x="5" y="5" width="24" height="24">
        <rect x="5" y="5" width="24" height="24" fill="#D9D9D9"/>
    </mask>
    <g mask="url(#mask0_2_45)">
        <path d="M16.6375 17.25C15.4222 17.25 14.2215 16.9851 13.0354 16.4552C11.8493 15.9253 10.7701 15.1743 9.79792 14.2021C8.82569 13.2299 8.07465 12.1507 7.54479 10.9646C7.01493 9.77847 6.75 8.57778 6.75 7.3625C6.75 7.1875 6.80833 7.04167 6.925 6.925C7.04167 6.80833 7.1875 6.75 7.3625 6.75H9.725C9.86111 6.75 9.98264 6.79618 10.0896 6.88854C10.1965 6.9809 10.2597 7.09028 10.2792 7.21667L10.6583 9.25833C10.6778 9.41389 10.6729 9.54514 10.6437 9.65208C10.6146 9.75903 10.5611 9.85139 10.4833 9.92917L9.06875 11.3583C9.26319 11.7181 9.4941 12.0656 9.76146 12.401C10.0288 12.7365 10.3229 13.0597 10.6437 13.3708C10.9451 13.6722 11.2611 13.9517 11.5917 14.2094C11.9222 14.467 12.2722 14.7028 12.6417 14.9167L14.0125 13.5458C14.1 13.4583 14.2142 13.3927 14.3552 13.349C14.4962 13.3052 14.6347 13.2931 14.7708 13.3125L16.7833 13.7208C16.9194 13.7597 17.0312 13.8302 17.1187 13.9323C17.2062 14.0344 17.25 14.1486 17.25 14.275V16.6375C17.25 16.8125 17.1917 16.9583 17.075 17.075C16.9583 17.1917 16.8125 17.25 16.6375 17.25Z" fill="white"/>
    </g>
</svg>
