<svg width="24" height="24" viewBox="0 0 24 24" fill="none" xmlns="http://www.w3.org/2000/svg">
    <path d="M24 12C24 5.37258 18.6274 0 12 0C5.37258 0 0 5.37258 0 12C0 18.6274 5.37258 24 12 24C18.6274 24 24 18.6274 24 12Z" fill="url(#paint0_linear_1_18)"/>
    <path d="M14.0185 15.6041C13.7007 15.6116 13.3994 15.5378 13.1014 15.4366C12.6298 15.276 12.1637 15.1038 11.727 14.8619C11.1557 14.5461 10.6485 14.145 10.1824 13.6898C9.60905 13.1301 9.11767 12.5054 8.68915 11.8302C8.54495 11.6026 8.43082 11.3593 8.33924 11.1051C8.12601 10.5132 8.11576 9.92477 8.37273 9.34249C8.49643 9.0616 8.68847 8.82787 8.91059 8.61942C9.03702 8.50051 9.19284 8.44173 9.36917 8.44515C9.50175 8.4472 9.63502 8.44993 9.76761 8.44993C9.90908 8.44993 10.0061 8.51896 10.0724 8.63993C10.1654 8.80873 10.2269 8.99189 10.302 9.1689C10.4504 9.51745 10.5864 9.87147 10.7408 10.2173C10.788 10.3232 10.7852 10.4264 10.7367 10.5344C10.6253 10.7838 10.4367 10.9745 10.261 11.1755C10.2474 11.1912 10.2317 11.2055 10.218 11.2212C10.1216 11.3292 10.108 11.4215 10.1818 11.5466C10.7517 12.5191 11.5261 13.2681 12.5683 13.7233C12.6517 13.7595 12.7337 13.7985 12.8171 13.834C12.9804 13.9044 13.0788 13.8832 13.193 13.7465C13.3768 13.5264 13.5627 13.3071 13.7363 13.0788C13.7629 13.0433 13.7848 13.0043 13.8121 12.9695C13.8894 12.8717 13.9892 12.8615 14.1019 12.8929C14.2495 12.9339 14.3855 13.0023 14.5229 13.0679C14.9029 13.2497 15.2808 13.4342 15.6595 13.6194C15.8836 13.7287 15.9034 13.7588 15.8925 14.0076C15.8823 14.2468 15.8289 14.4785 15.7415 14.7006C15.6888 14.8332 15.5966 14.9391 15.492 15.0334C15.2289 15.2712 14.9282 15.4448 14.5865 15.5426C14.4019 15.5952 14.2106 15.6013 14.0206 15.6034L14.0185 15.6041Z" fill="#FEFEFE"/>
    <path d="M12.0523 4.28444C7.85125 4.28444 4.4464 7.71252 4.4464 11.9416C4.4464 13.3235 4.80999 14.6199 5.44626 15.7394L4.34116 19.7156L8.38569 18.6515C9.47303 19.255 10.723 19.598 12.0523 19.598C16.2533 19.598 19.6582 16.17 19.6582 11.9409C19.6582 7.71184 16.2527 4.28375 12.0523 4.28375V4.28444ZM12.0523 18.2572C10.7818 18.2572 9.59946 17.8772 8.61122 17.2231L6.21375 17.8635L6.86164 15.4899C6.17753 14.4785 5.77841 13.2565 5.77841 11.9409C5.77841 8.45267 8.5873 5.62532 12.0523 5.62532C15.5173 5.62532 18.3262 8.45267 18.3262 11.9409C18.3262 15.4291 15.5173 18.2565 12.0523 18.2565V18.2572Z" fill="white"/>
    <defs>
        <linearGradient id="paint0_linear_1_18" x1="24.8563" y1="-7.2177" x2="4.46963" y2="23.2571" gradientUnits="userSpaceOnUse">
            <stop stop-color="#5FFB7B"/>
            <stop offset="1" stop-color="#27D145"/>
        </linearGradient>
    </defs>
</svg>
